<svg xmlns="http://www.w3.org/2000/svg" width="512" height="512" viewBox="0 0 512 512" fill="none"><path d="M248.125 117.177H319.146L240.305 216.045L319.991 314.912H248.548L168.65 215.782L248.125 117.177Z" fill="#00B4D8"></path><path d="M47.7734 29V77.77H94.4365C94.4423 79.718 94.4472 81.7432 94.4472 83.8487V397.779H365.407C366.136 397.779 366.863 397.771 367.587 397.755L327.247 349.009H143.217L143.217 88.2506H94.4473V77.77H414.456V299.96C414.456 327.049 392.496 349.009 365.407 349.009H344.411L382.533 396.285C428.391 388.187 463.226 348.142 463.226 299.96V29H47.7734Z" fill="#00B4D8"></path><ellipse cx="219.307" cy="447.877" rx="36.1233" ry="36.1233" fill="#00B4D8"></ellipse><ellipse cx="320.061" cy="447.877" rx="36.1233" ry="36.1233" fill="#00B4D8"></ellipse></svg>